<svg width="702" height="790" viewBox="0 0 702 790" fill="none" xmlns="http://www.w3.org/2000/svg">
<path d="M483.806 130.284L479.255 118.146C501.234 109.864 535.111 74.1876 514.613 36.9184C489.384 -8.95148 420.006 -2.58066 388.47 6.33847L174.411 56.9864C99.3837 71.6716 43.491 101.901 35.8461 115.279C29.1567 126.11 18.2626 154.078 28.2011 179.306C38.1395 204.534 69.9299 210.204 84.5828 209.886L86.4678 224.966C87.6368 234.318 82.966 243.433 74.6924 247.946L56.8698 257.667C-17.2865 290.54 -3.33447 384.765 12.9111 427.768L85.5384 696.297C120.705 792.624 249.905 796.319 310.109 786.126C369.676 777.207 511.554 748.474 602.529 704.898C693.504 661.322 705.418 583.534 700.002 550.087L625.464 224.22C611.162 156.614 551.166 143.638 510.221 146.164C498.914 146.862 487.783 140.892 483.806 130.284Z" fill="#3C3CA9" style="fill:#3C3CA9;fill:color(display-p3 0.2353 0.2353 0.6627);fill-opacity:1;"/>
</svg>
