<svg width="31" height="31" viewBox="0 0 31 31" fill="none" xmlns="http://www.w3.org/2000/svg">
<path d="M13.2335 1.56713C14.0067 -0.522352 16.962 -0.522354 17.7352 1.56713L20.5032 9.04752C20.7463 9.70444 21.2642 10.2224 21.9212 10.4655L29.4016 13.2335C31.491 14.0066 31.491 16.962 29.4016 17.7352L21.9212 20.5032C21.2642 20.7462 20.7463 21.2642 20.5032 21.9211L17.7352 29.4015C16.962 31.491 14.0067 31.491 13.2335 29.4015L10.4655 21.9211C10.2225 21.2642 9.70451 20.7462 9.04758 20.5032L1.56719 17.7352C-0.522291 16.962 -0.522293 14.0066 1.56719 13.2335L9.04758 10.4655C9.70451 10.2224 10.2225 9.70444 10.4655 9.04752L13.2335 1.56713Z" fill="#FD6721" style="fill:#FD6721;fill:color(display-p3 0.9922 0.4039 0.1294);fill-opacity:1;"/>
</svg>
