<svg width="35" height="43" viewBox="0 0 35 43" fill="none" xmlns="http://www.w3.org/2000/svg">
<path d="M30.689 36.0341C29.0291 38.5139 27.2693 40.9338 24.5894 40.9738C21.9096 41.0338 21.0497 39.3939 18.0099 39.3939C14.9501 39.3939 14.0101 40.9338 11.4702 41.0338C8.85041 41.1338 6.87055 38.394 5.19066 35.9741C1.77088 31.0344 -0.848941 21.935 2.67082 15.8155C4.41071 12.7757 7.5305 10.8558 10.9103 10.7958C13.4702 10.7558 15.91 12.5357 17.4899 12.5357C19.0498 12.5357 22.0096 10.3958 25.1094 10.7158C26.4093 10.7758 30.0491 11.2358 32.3889 14.6755C32.2089 14.7955 28.0492 17.2354 28.0892 22.295C28.1492 28.3346 33.3888 30.3545 33.4488 30.3745C33.3888 30.5145 32.6089 33.2543 30.689 36.0341ZM19.2698 4.03624C20.7297 2.37635 23.1495 1.11643 25.1494 1.03644C25.4094 3.37628 24.4694 5.73613 23.0695 7.41601C21.6896 9.1159 19.4098 10.4358 17.1699 10.2558C16.8699 7.95598 17.9899 5.55614 19.2698 4.03624Z" stroke="white" style="stroke:white;stroke-opacity:1;" stroke-width="2.6"/>
</svg>
