<svg width="63" height="49" viewBox="0 0 63 49" fill="none" xmlns="http://www.w3.org/2000/svg">
<path d="M44.5559 3.99969C47.0644 3.99972 49.2991 4.78184 51.2603 6.34514C53.2214 7.90841 54.5212 9.94978 55.1598 12.4697L60.907 35.9897C60.9982 36.4096 61.0779 36.8412 61.1463 37.2845C61.2147 37.7278 61.2493 38.1594 61.2493 38.5793C61.2493 41.426 60.257 43.8412 58.273 45.8245C56.289 47.8078 53.9055 48.7997 51.1234 48.7997C49.2079 48.7997 47.4293 48.286 45.7875 47.2594C44.1455 46.2328 42.9137 44.8328 42.0927 43.0595L40.1772 38.9996C39.9492 38.5329 39.6071 38.1829 39.151 37.9496C38.6949 37.7163 38.2157 37.5994 37.714 37.5994H24.7154C24.2138 37.5994 23.7351 37.7163 23.2791 37.9496C22.823 38.1829 22.4809 38.533 22.2529 38.9996L20.3367 43.0595C19.5158 44.8327 18.2845 46.2328 16.6426 47.2594C15.0006 48.2861 13.2217 48.7997 11.3061 48.7997C8.56957 48.7997 6.2324 47.7958 4.29401 45.7892C2.35559 43.7825 1.34049 41.3559 1.24927 38.5093C1.24928 38.0895 1.27214 37.6696 1.31772 37.2498C1.36333 36.8298 1.43188 36.4097 1.52309 35.9897L7.26968 12.4697C7.9082 9.94984 9.20815 7.90841 11.1692 6.34514C13.1304 4.78182 15.3656 3.99969 17.8742 3.99969H17.9172C19.5708 3.99969 21.1964 4.42683 22.6364 5.23972L25.4764 6.84293C25.9264 7.09695 26.4344 7.23043 26.9512 7.23043H37.1003C37.8111 7.23043 38.4988 6.97805 39.0408 6.51827L40.0686 5.64648C41.3221 4.58329 42.9123 3.99969 44.5559 3.99969Z" fill="#5255C3" style="fill:#5255C3;fill:color(display-p3 0.3216 0.3333 0.7647);fill-opacity:1;"/>
<path d="M44.7561 0.399597C47.3913 0.399624 49.7464 1.21232 51.8079 2.83124C53.8695 4.45036 55.2371 6.56777 55.9065 9.1701L55.9075 9.17401L61.7405 32.6935L61.7434 32.7043C61.8378 33.1324 61.9199 33.5719 61.9905 34.0226C62.0629 34.4848 62.0998 34.9378 62.0999 35.3801C62.0997 38.3326 61.0505 40.8505 58.9602 42.9094C56.8717 44.9663 54.3512 46.0002 51.4221 46.0002C49.4033 46.0001 47.5251 45.4656 45.7961 44.4006C44.0634 43.3331 42.7601 41.8731 41.8938 40.0295V40.0285L39.9534 35.9777L39.8772 35.8361C39.688 35.5176 39.4272 35.2765 39.0901 35.1066C38.682 34.901 38.2571 34.8 37.8118 34.8H24.6184C24.1731 34.8 23.7483 34.9009 23.3401 35.1066C22.9566 35.2999 22.6719 35.5851 22.4788 35.9719L20.5344 40.0324C19.6681 41.8748 18.3661 43.3336 16.634 44.4006C14.905 45.4657 13.0269 46.0001 11.0081 46.0002C8.12154 46.0002 5.64638 44.9516 3.60474 42.8693C1.56615 40.7901 0.496431 38.2677 0.400635 35.3224L0.399658 35.3098C0.399667 34.8752 0.424069 34.4403 0.471924 34.006C0.519804 33.5717 0.59221 33.1377 0.687744 32.7043L0.689697 32.6935L6.52271 9.17401L6.52368 9.1701C7.19299 6.56801 8.56002 4.4503 10.6213 2.83124C12.6828 1.2123 15.039 0.399649 17.6741 0.399597C19.4498 0.399597 21.1964 0.852957 22.7483 1.716L25.5491 3.27362C25.9698 3.50761 26.4436 3.631 26.925 3.63104H37.134C37.7976 3.63104 38.4403 3.39737 38.9495 2.97186L39.9329 2.1496C41.2857 1.01907 42.993 0.399642 44.7561 0.399597Z" fill="#26286E" stroke="#5255C3" style="fill:#26286E;fill:color(display-p3 0.1490 0.1569 0.4314);fill-opacity:1;stroke:#5255C3;stroke:color(display-p3 0.3216 0.3333 0.7647);stroke-opacity:1;" stroke-width="0.8"/>
<path d="M17.7378 10.9947C17.8451 10.9332 17.9773 10.9332 18.0846 10.9947L19.8256 11.9923C19.9329 12.0539 19.9992 12.1676 19.9993 12.2906V15.2965H23.0046C23.1276 15.2965 23.2413 15.3625 23.3029 15.4696L24.301 17.2106C24.3625 17.3179 24.3625 17.4501 24.301 17.5574L23.3029 19.2983C23.2413 19.4057 23.1277 19.472 23.0046 19.472H19.9993V22.4774C19.9993 22.6004 19.9329 22.7141 19.8256 22.7756L18.0846 23.7738C17.9773 23.8353 17.8451 23.8353 17.7378 23.7738L15.9969 22.7756C15.8897 22.7141 15.8237 22.6004 15.8237 22.4774V19.472H12.8178C12.6948 19.472 12.5811 19.4056 12.5196 19.2983L11.522 17.5574C11.4605 17.4501 11.4604 17.3179 11.522 17.2106L12.5196 15.4696C12.5811 15.3624 12.6949 15.2966 12.8178 15.2965H15.8237V12.2906C15.8238 12.1676 15.8896 12.0539 15.9969 11.9923L17.7378 10.9947Z" fill="#FD6721" style="fill:#FD6721;fill:color(display-p3 0.9922 0.4039 0.1294);fill-opacity:1;"/>
<path d="M44.9754 10.9738C45.093 10.9058 45.2379 10.9058 45.3555 10.9738L47.2627 12.0758C47.3803 12.1438 47.4527 12.2694 47.4527 12.4053V14.6095C47.4527 14.7454 47.3803 14.871 47.2627 14.9389L45.3555 16.041C45.2379 16.109 45.093 16.109 44.9754 16.041L43.0682 14.9389C42.9506 14.871 42.8782 14.7454 42.8782 14.6095V12.4053C42.8782 12.2694 42.9506 12.1438 43.0682 12.0758L44.9754 10.9738Z" fill="#FD6721" style="fill:#FD6721;fill:color(display-p3 0.9922 0.4039 0.1294);fill-opacity:1;"/>
<path d="M44.9754 18.7272C45.093 18.6592 45.2379 18.6592 45.3555 18.7272L47.2627 19.8293C47.3803 19.8972 47.4527 20.0228 47.4527 20.1587V22.3629C47.4527 22.4988 47.3803 22.6244 47.2627 22.6923L45.3555 23.7944C45.2379 23.8624 45.093 23.8624 44.9754 23.7944L43.0682 22.6923C42.9506 22.6244 42.8782 22.4988 42.8782 22.3629V20.1587C42.8782 20.0228 42.9506 19.8972 43.0682 19.8293L44.9754 18.7272Z" fill="#FD6721" style="fill:#FD6721;fill:color(display-p3 0.9922 0.4039 0.1294);fill-opacity:1;"/>
<path d="M41.1356 14.8506C41.2532 14.7826 41.3981 14.7826 41.5157 14.8506L43.4229 15.9527C43.5405 16.0206 43.6129 16.1462 43.6129 16.2821V18.4863C43.6129 18.6222 43.5405 18.7478 43.4229 18.8158L41.5157 19.9178C41.3981 19.9858 41.2532 19.9858 41.1356 19.9178L39.2284 18.8158C39.1108 18.7478 39.0383 18.6222 39.0383 18.4863V16.2821C39.0383 16.1462 39.1108 16.0206 39.2284 15.9527L41.1356 14.8506Z" fill="#FD6721" style="fill:#FD6721;fill:color(display-p3 0.9922 0.4039 0.1294);fill-opacity:1;"/>
<path d="M48.827 14.8507C48.9446 14.7828 49.0895 14.7828 49.2071 14.8507L51.1143 15.9528C51.2319 16.0207 51.3043 16.1463 51.3043 16.2823V18.4864C51.3043 18.6223 51.2319 18.7479 51.1143 18.8159L49.2071 19.918C49.0895 19.9859 48.9446 19.9859 48.827 19.918L46.9198 18.8159C46.8022 18.7479 46.7297 18.6223 46.7297 18.4864V16.2823C46.7297 16.1463 46.8022 16.0207 46.9198 15.9528L48.827 14.8507Z" fill="#FD6721" style="fill:#FD6721;fill:color(display-p3 0.9922 0.4039 0.1294);fill-opacity:1;"/>
</svg>
