<svg width="24" height="18" viewBox="0 0 24 18" fill="none" xmlns="http://www.w3.org/2000/svg">
<path d="M20.3303 1.5075C18.7767 0.80325 17.1156 0.291433 15.3789 0C15.1656 0.373607 14.9164 0.876116 14.7446 1.27586C12.8985 1.00687 11.0693 1.00687 9.25716 1.27586C9.08539 0.876116 8.83055 0.373607 8.61536 0C6.87681 0.291433 5.21376 0.80513 3.66019 1.51123C0.526643 6.09902 -0.322811 10.5729 0.101917 14.9832C2.18025 16.4869 4.19441 17.4004 6.17457 17.9981C6.66349 17.3462 7.09953 16.6532 7.47518 15.9228C6.75975 15.6594 6.07453 15.3344 5.42707 14.9571C5.59884 14.8338 5.76686 14.7049 5.92918 14.5722C9.87819 16.3618 14.1689 16.3618 18.0707 14.5722C18.235 14.7049 18.403 14.8338 18.5728 14.9571C17.9235 15.3362 17.2364 15.6613 16.521 15.9247C16.8966 16.6532 17.3308 17.3481 17.8216 18C19.8036 17.4022 21.8197 16.4888 23.898 14.9832C24.3964 9.87051 23.0467 5.43775 20.3303 1.5075ZM8.01318 12.2709C6.82772 12.2709 5.85555 11.1986 5.85555 9.89291C5.85555 8.58719 6.80696 7.5131 8.01318 7.5131C9.21942 7.5131 10.1916 8.58531 10.1708 9.89291C10.1727 11.1986 9.21942 12.2709 8.01318 12.2709ZM15.9867 12.2709C14.8013 12.2709 13.8291 11.1986 13.8291 9.89291C13.8291 8.58719 14.7805 7.5131 15.9867 7.5131C17.193 7.5131 18.1651 8.58531 18.1444 9.89291C18.1444 11.1986 17.193 12.2709 15.9867 12.2709Z" fill="white" style="fill:white;fill-opacity:1;"/>
</svg>
