<svg width="13" height="24" viewBox="0 0 13 24" fill="none" xmlns="http://www.w3.org/2000/svg">
<path d="M12.1462 13.4022L12.8347 9.08764H8.62076V6.28315C8.62076 5.70786 8.7952 5.17753 9.14407 4.69213C9.49294 4.20674 10.1448 3.96404 11.0996 3.96404H13V0.296629C12.4492 0.206741 11.8891 0.139326 11.3199 0.0943813C10.7507 0.0494385 10.1815 0.0179768 9.61229 0C7.86794 0 6.47246 0.498877 5.42585 1.49663C4.37924 2.49438 3.85593 3.92809 3.85593 5.79775V9.08764H0V13.4022H3.85593V23.8112C4.64548 23.9371 5.43962 24 6.23835 24C7.03708 24 7.83121 23.9371 8.62076 23.8112V13.4022H12.1462Z" fill="white" style="fill:white;fill-opacity:1;"/>
</svg>
