<svg width="39" height="50" viewBox="0 0 39 50" fill="none" xmlns="http://www.w3.org/2000/svg">
<path d="M21 49.5C19.954 49.5 19.0086 49.25 18.1638 48.75C17.319 48.25 16.6552 47.58 16.1724 46.74C14.8448 46.74 13.7083 46.27 12.7629 45.33C11.8175 44.39 11.3448 43.26 11.3448 41.94V33.42C8.97126 31.86 7.0704 29.8 5.64224 27.24C4.21408 24.68 3.5 21.9 3.5 18.9C3.5 14.06 5.19971 9.95 8.59914 6.57C11.9986 3.19 16.1322 1.5 21 1.5C25.8678 1.5 30.0014 3.19 33.4009 6.57C36.8003 9.95 38.5 14.06 38.5 18.9C38.5 21.98 37.7859 24.78 36.3578 27.3C34.9296 29.82 33.0287 31.86 30.6552 33.42V41.94C30.6552 43.26 30.1825 44.39 29.2371 45.33C28.2917 46.27 27.1552 46.74 25.8276 46.74C25.3448 47.58 24.681 48.25 23.8362 48.75C22.9914 49.25 22.046 49.5 21 49.5ZM16.1724 41.94H25.8276V39.78H16.1724V41.94ZM16.1724 37.38H25.8276V35.1H16.1724V37.38ZM22.8103 30.3V23.82L28.1207 18.54L25.5862 16.02L21 20.58L16.4138 16.02L13.8793 18.54L19.1897 23.82V30.3H22.8103Z" fill="#EC4B00" style="fill:#EC4B00;fill:color(display-p3 0.9243 0.2941 0.0000);fill-opacity:1;"/>
<rect x="10.5" y="14.5" width="16" height="27" fill="#3C3CA9" style="fill:#3C3CA9;fill:color(display-p3 0.2353 0.2353 0.6627);fill-opacity:1;"/>
<path d="M18 0.25C22.9327 0.25 27.1301 1.96524 30.5771 5.39258C34.0243 8.82001 35.75 12.9946 35.75 17.9004C35.7499 21.0205 35.0258 23.8631 33.5752 26.4229C32.1508 28.9362 30.2596 30.9794 27.9053 32.5518V40.9404C27.9052 42.3275 27.405 43.5206 26.4131 44.5068C25.4545 45.46 24.3021 45.954 22.9678 45.9863C22.4701 46.8064 21.8033 47.468 20.9639 47.9648C20.0779 48.4892 19.0877 48.75 18 48.75C16.9123 48.75 15.9221 48.4892 15.0361 47.9648C14.1966 47.4679 13.529 46.8066 13.0312 45.9863C11.6973 45.9538 10.5453 45.4597 9.58691 44.5068C8.59501 43.5206 8.09483 42.3275 8.09473 40.9404V32.5518C5.73948 30.9782 3.84805 28.9143 2.42383 26.3613C0.974603 23.7634 0.250062 20.9417 0.25 17.9004C0.25 12.9946 1.97572 8.82001 5.42285 5.39258C8.86991 1.96524 13.0673 0.25 18 0.25ZM13.4229 40.6904H22.5771V39.0303H13.4229V40.6904ZM13.4229 36.1299H22.5771V34.3496H13.4229V36.1299ZM16.4395 29.0498H19.5605V22.7158L19.6338 22.6426L24.7656 17.5391L22.5859 15.3721L18.1758 19.7568L18 19.9326L17.8242 19.7568L13.4131 15.3721L11.2334 17.5391L16.3662 22.6426L16.4395 22.7158V29.0498Z" fill="#FD6721" stroke="#EC4B00" style="fill:#FD6721;fill:color(display-p3 0.9922 0.4039 0.1294);fill-opacity:1;stroke:#EC4B00;stroke:color(display-p3 0.9255 0.2941 0.0000);stroke-opacity:1;" stroke-width="0.5"/>
</svg>
