<svg width="24" height="24" viewBox="0 0 24 24" fill="none" xmlns="http://www.w3.org/2000/svg">
<path d="M13.123 9.90304C13.3024 9.70462 13.4639 9.51522 13.6074 9.33484C13.7509 9.15445 13.9124 8.98309 14.0918 8.82074C14.343 8.56821 14.6165 8.34724 14.9125 8.15784C15.2086 7.96843 15.518 7.8106 15.8409 7.68433C16.1639 7.54002 16.4957 7.44081 16.8366 7.3867C17.1775 7.33258 17.5273 7.30552 17.8861 7.30552C18.2808 7.30552 18.6754 7.32807 19.0701 7.37317C19.4648 7.41826 19.8595 7.49493 20.2542 7.60316C21.1511 7.85569 21.8643 8.2841 22.3935 8.88839C22.9227 9.49267 23.3129 10.2277 23.5641 11.0936C23.7255 11.743 23.8421 12.4059 23.9139 13.0823C23.9856 13.7587 24.0126 14.4307 23.9946 15.0981C23.9946 16.5231 23.9946 17.9481 23.9946 19.3732C23.9946 20.7982 23.9946 22.2232 23.9946 23.6483C23.9946 23.7926 23.9722 23.8873 23.9273 23.9324C23.8825 23.9775 23.7973 23.991 23.6717 23.9729C22.9362 23.9729 22.2051 23.9729 21.4785 23.9729C20.752 23.9729 20.0209 23.9729 19.2854 23.9729C19.1598 23.9729 19.0791 23.9549 19.0432 23.9188C19.0073 23.8828 18.9894 23.8016 18.9894 23.6753C18.9894 22.3224 18.9894 20.9696 18.9894 19.6167C18.9894 18.2638 18.9894 16.9109 18.9894 15.5581C19.0073 15.2153 18.9939 14.8726 18.949 14.5299C18.9042 14.1871 18.8369 13.8534 18.7472 13.5287C18.5857 12.9154 18.2897 12.46 17.8592 12.1623C17.4286 11.8647 16.8994 11.7339 16.2715 11.77C15.4104 11.8061 14.7466 12.0451 14.2802 12.487C13.8137 12.929 13.5267 13.5919 13.419 14.4758C13.4011 14.6922 13.3832 14.9087 13.3652 15.1251C13.3473 15.3416 13.3383 15.549 13.3383 15.7475C13.3383 17.0643 13.3383 18.3856 13.3383 19.7114C13.3383 21.0372 13.3383 22.3585 13.3383 23.6753C13.3383 23.8016 13.3159 23.8873 13.271 23.9324C13.2262 23.9775 13.141 24 13.0154 24C12.2799 24 11.5443 24 10.8088 24C10.0733 24 9.33772 24 8.60218 24C8.4766 24 8.39587 23.982 8.35999 23.9459C8.32411 23.9098 8.30617 23.8286 8.30617 23.7024C8.30617 22.3856 8.30617 21.0778 8.30617 19.779C8.30617 18.4803 8.30617 17.177 8.30617 15.8692C8.30617 14.5614 8.30617 13.2582 8.30617 11.9594C8.30617 10.6607 8.30617 9.35287 8.30617 8.03608C8.30617 7.90981 8.3286 7.82864 8.37345 7.79256C8.4183 7.75648 8.50351 7.73845 8.62909 7.73845C9.32875 7.73845 10.0284 7.73845 10.7281 7.73845C11.4277 7.73845 12.1184 7.73845 12.8001 7.73845C12.9436 7.73845 13.0333 7.76099 13.0692 7.80609C13.1051 7.85118 13.123 7.93687 13.123 8.06313C13.123 8.35175 13.123 8.65389 13.123 8.96956C13.123 9.28523 13.123 9.59639 13.123 9.90304ZM5.42682 15.8557C5.42682 17.1545 5.42682 18.4487 5.42682 19.7384C5.42682 21.0282 5.42682 22.3224 5.42682 23.6212C5.42682 23.7655 5.4044 23.8602 5.35955 23.9053C5.3147 23.9504 5.22051 23.9729 5.07699 23.9729C4.34146 23.9729 3.61041 23.9729 2.88384 23.9729C2.15727 23.9729 1.42622 23.9729 0.690686 23.9729C0.583047 23.9729 0.506802 23.9549 0.461952 23.9188C0.417103 23.8828 0.394678 23.8016 0.394678 23.6753C0.394678 22.3766 0.394678 21.0688 0.394678 19.752C0.394678 18.4532 0.394678 17.1499 0.394678 15.8422C0.394678 14.5344 0.394678 13.2221 0.394678 11.9053C0.394678 10.6065 0.394678 9.29876 0.394678 7.98196C0.394678 7.87373 0.412618 7.79707 0.448498 7.75197C0.484377 7.70688 0.556137 7.69335 0.663776 7.71139C1.41725 7.71139 2.16176 7.71139 2.89729 7.71139C3.63283 7.71139 4.36837 7.71139 5.1039 7.71139C5.24742 7.71139 5.33712 7.73845 5.373 7.79256C5.40888 7.84667 5.42682 7.93687 5.42682 8.06313C5.42682 9.36189 5.42682 10.6607 5.42682 11.9594C5.42682 13.2582 5.42682 14.5569 5.42682 15.8557ZM5.83047 2.92221C5.83047 3.21082 5.7901 3.49493 5.70937 3.77452C5.62864 4.05412 5.50755 4.31116 5.34609 4.54566C5.18463 4.7982 4.99178 5.01466 4.76753 5.19504C4.54328 5.37542 4.29661 5.51973 4.02751 5.62796C3.77635 5.75423 3.50725 5.83089 3.22021 5.85795C2.93317 5.88501 2.64614 5.87148 2.3591 5.81736C2.07206 5.76325 1.80296 5.66404 1.5518 5.51973C1.30064 5.37542 1.06742 5.20406 0.852145 5.00564C0.654806 4.80721 0.488862 4.57723 0.354313 4.31567C0.219764 4.05412 0.125579 3.78805 0.0717596 3.51748C0 3.22886 -0.0179399 2.94025 0.0179399 2.65163C0.0538197 2.36302 0.125579 2.08343 0.233219 1.81285C0.340858 1.54228 0.484377 1.29425 0.663776 1.06877C0.843175 0.843292 1.05845 0.64938 1.30961 0.487036C1.54283 0.32469 1.79848 0.202932 2.07654 0.121759C2.35461 0.0405865 2.63717 0 2.9242 0C3.30094 0 3.66871 0.076664 4.02751 0.229988C4.38631 0.383314 4.70025 0.595264 4.96935 0.865841C5.23845 1.13642 5.44925 1.44758 5.60173 1.79932C5.75422 2.15107 5.83047 2.52537 5.83047 2.92221Z" fill="white" style="fill:white;fill-opacity:1;"/>
</svg>
