<svg width="48" height="48" viewBox="0 0 48 48" fill="none" xmlns="http://www.w3.org/2000/svg">
<path d="M30.1797 15.5593C30.4888 15.3646 30.8857 15.352 31.21 15.5378L38.415 19.6657C38.4587 19.6907 38.4995 19.7192 38.5381 19.7497C39.3399 20.2173 39.9981 20.8973 40.4346 21.7194L40.4365 21.7224C40.7376 22.2943 40.923 22.9204 40.9814 23.5641C41.0399 24.208 40.9705 24.8574 40.7773 25.4743C40.5841 26.0912 40.2707 26.6643 39.8555 27.1599C39.4488 27.645 38.9517 28.0461 38.3926 28.3425L31.2412 32.4255C30.8519 32.6477 30.3621 32.584 30.043 32.2692L21.8994 24.236C21.7018 24.0411 21.5935 23.7723 21.6016 23.4948C21.6097 23.2172 21.7337 22.9553 21.9424 22.7722L30.0527 15.654L30.1797 15.5593Z" fill="none" stroke="white" style="stroke:white;stroke-opacity:1;" stroke-width="2" stroke-linejoin="round"/>
<path d="M22.9512 22.1705C23.2276 22.1731 23.4905 22.2903 23.6777 22.4938L31.4141 30.902C31.6202 31.126 31.7128 31.4322 31.666 31.733C31.6191 32.0339 31.4374 32.2971 31.1729 32.4479L14.5098 41.9391L14.5088 41.9381C13.8471 42.3156 13.1087 42.5386 12.3486 42.5895C11.5883 42.6404 10.8264 42.5182 10.1201 42.2321C9.41372 41.9458 8.78101 41.5031 8.27051 40.9371C7.75999 40.3711 7.38399 39.6966 7.17188 38.9645C7.0728 38.6225 7.16339 38.2534 7.40918 37.9957L22.2188 22.4801C22.4096 22.2801 22.6748 22.168 22.9512 22.1705Z" fill="none" stroke="white" style="stroke:white;stroke-opacity:1;" stroke-width="2" stroke-linejoin="round"/>
<path d="M12.0098 5.30865C12.9086 5.31175 13.7908 5.55157 14.5674 6.00397L31.208 15.5381C31.4793 15.6936 31.6618 15.9674 31.7021 16.2774C31.7423 16.5873 31.6355 16.8977 31.4131 17.1172L23.7549 24.6768C23.3654 25.0612 22.739 25.0613 22.3496 24.6768L7.43066 9.9444C7.17136 9.68835 7.07179 9.31167 7.1709 8.961C7.46855 7.90795 8.10223 6.98072 8.97559 6.32135C9.84883 5.66215 10.9137 5.30657 12.0078 5.30865H12.0098Z" fill="none" stroke="white" style="stroke:white;stroke-opacity:1;" stroke-width="2" stroke-linejoin="round"/>
<path d="M7.85645 8.28308C8.19439 8.18611 8.55862 8.27343 8.81543 8.51355L24.1328 22.8378C24.3313 23.0236 24.4456 23.2826 24.4492 23.5546C24.4528 23.8266 24.345 24.0881 24.1514 24.2792L8.83496 39.3973C8.5813 39.6477 8.21303 39.7449 7.86914 39.6512C7.52543 39.5575 7.25763 39.2875 7.16602 38.9432C7.05553 38.5279 6.99974 38.0995 7 37.6698V10.2596L7.01074 9.93835C7.03149 9.61724 7.08317 9.29865 7.16602 8.98718L7.20801 8.86316C7.32335 8.58311 7.56083 8.36798 7.85645 8.28308Z" fill="none" stroke="white" style="stroke:white;stroke-opacity:1;" stroke-width="2" stroke-linejoin="round"/>
</svg>
