<svg width="39" height="38" viewBox="0 0 39 38" fill="none" xmlns="http://www.w3.org/2000/svg">
<path d="M18.0413 1.17188C19.232 -0.526224 21.8021 -0.34651 22.7449 1.50079L26.7908 9.42754C27.1295 10.0912 27.7229 10.5891 28.4353 10.8074L36.9441 13.4153C38.9271 14.0231 39.5504 16.5229 38.0848 17.9904L31.7963 24.2878C31.2698 24.815 30.9796 25.5332 30.9921 26.2782L31.1412 35.1765C31.176 37.2502 28.9912 38.6155 27.1425 37.6752L19.2102 33.6404C18.546 33.3026 17.7733 33.2485 17.0687 33.4906L8.65194 36.3822C6.69046 37.056 4.7169 35.4 5.03992 33.3513L6.42599 24.5604C6.54204 23.8244 6.35465 23.0728 5.90665 22.4774L0.555713 15.3662C-0.691303 13.7089 0.273796 11.3202 2.32205 10.9943L11.1111 9.59601C11.8469 9.47894 12.5038 9.06846 12.9316 8.45842L18.0413 1.17188Z" fill="#FD6721" style="fill:#FD6721;fill:color(display-p3 0.9922 0.4039 0.1294);fill-opacity:1;"/>
</svg>
