<svg width="24" height="16" viewBox="0 0 24 16" fill="none" xmlns="http://www.w3.org/2000/svg">
<path d="M23.4967 2.48718C23.426 2.24786 23.3245 2.01709 23.1921 1.79487C23.0596 1.57265 22.8962 1.37607 22.702 1.20513C22.5254 1.01709 22.3223 0.863248 22.0927 0.743589C21.8631 0.623932 21.6159 0.529914 21.351 0.461538C20.8918 0.34188 20.1413 0.25641 19.0993 0.205128C18.0751 0.136752 17.0375 0.0897436 15.9868 0.0641022C14.936 0.0384617 14.0044 0.0170937 13.1921 0C12.3974 0 12 0 12 0C12 0 11.6026 0 10.8079 0C10.0132 0.0170937 9.08609 0.0384617 8.02649 0.0641022C6.96689 0.0897436 5.92494 0.136752 4.90066 0.205128C3.85872 0.273504 3.10817 0.367521 2.64901 0.48718C2.38411 0.538462 2.13687 0.628205 1.90728 0.75641C1.6777 0.884615 1.47461 1.04274 1.29801 1.23077C1.10375 1.40171 0.940397 1.59829 0.807947 1.82051C0.675497 2.04274 0.573951 2.2735 0.503311 2.51282C0.379691 2.95726 0.282561 3.49573 0.211921 4.12821C0.15894 4.76068 0.11479 5.36325 0.0794702 5.9359C0.0441501 6.50855 0.0264901 7 0.0264901 7.41026C0.00883002 7.82051 0 8.02564 0 8.02564C0 8.02564 0.00883002 8.22222 0.0264901 8.61538C0.0264901 9.02564 0.0441501 9.52137 0.0794702 10.1026C0.11479 10.6838 0.15894 11.2906 0.211921 11.9231C0.282561 12.5385 0.379691 13.0684 0.503311 13.5128C0.573951 13.7692 0.675497 14.0043 0.807947 14.2179C0.940397 14.4316 1.10375 14.6239 1.29801 14.7949C1.47461 14.9829 1.6777 15.1368 1.90728 15.2564C2.13687 15.3761 2.38411 15.4701 2.64901 15.5385C3.10817 15.6581 3.85872 15.7521 4.90066 15.8205C5.92494 15.8718 6.96689 15.9145 8.02649 15.9487C9.08609 15.9829 10.0132 16 10.8079 16C11.6026 16 12 16 12 16C12 16 12.3974 16 13.1921 16C14.0044 16 14.936 15.9829 15.9868 15.9487C17.0375 15.9145 18.0839 15.8718 19.1258 15.8205C20.1501 15.7521 20.9007 15.6581 21.3775 15.5385C21.6247 15.4701 21.8631 15.3718 22.0927 15.2436C22.3223 15.1154 22.5254 14.9658 22.702 14.7949C22.8962 14.6239 23.0596 14.4274 23.1921 14.2051C23.3245 13.9829 23.426 13.7521 23.4967 13.5128C23.6203 13.0684 23.7174 12.5299 23.7881 11.8974C23.8587 11.265 23.9073 10.6624 23.9338 10.0897C23.9603 9.51709 23.9823 9.02564 24 8.61538C24 8.20513 24 8 24 8C24 8 23.9912 7.79487 23.9735 7.38461C23.9735 6.99145 23.9559 6.50427 23.9205 5.92308C23.8852 5.34188 23.8322 4.73504 23.7616 4.10256C23.7086 3.47009 23.6203 2.93162 23.4967 2.48718ZM9.61589 11.4359V4.5641L15.8411 8L9.61589 11.4359Z" fill="#FD6721" style="fill:#FD6721;fill:color(display-p3 0.9922 0.4039 0.1294);fill-opacity:1;"/>
</svg>
